<?xml version="1.0" standalone="no"?>
<!DOCTYPE svg PUBLIC "-//W3C//DTD SVG 20010904//EN"
 "http://www.w3.org/TR/2001/REC-SVG-20010904/DTD/svg10.dtd">
<svg version="1.0" xmlns="http://www.w3.org/2000/svg"
 width="560.000000pt" height="361.000000pt" viewBox="0 0 560.000000 361.000000"
 preserveAspectRatio="xMidYMid meet">

<g transform="translate(0.000000,361.000000) scale(0.100000,-0.100000)"
fill="#000000" stroke="none">
<path d="M1360 1495 l0 -1365 670 0 c573 0 682 2 747 16 194 40 341 152 420
321 58 125 58 125 58 758 l0 580 -84 3 c-49 2 -96 -2 -110 -9 -14 -6 -69 -59
-121 -117 -188 -209 -322 -352 -331 -352 -5 0 -9 153 -9 349 0 278 3 352 13
363 8 7 12 20 10 28 -3 9 0 8 7 -3 11 -17 28 -19 213 -17 111 1 297 -1 412 -5
l210 -6 5 -212 c3 -117 5 -542 5 -944 0 -597 2 -733 13 -733 7 0 10 -5 6 -11
-5 -9 9 -10 52 -4 32 5 71 8 86 8 19 0 28 5 32 21 10 43 5 2046 -5 2046 -6 0
-7 5 -4 10 7 12 -17 13 -598 12 -353 -1 -449 2 -453 12 -8 20 14 104 43 163
30 61 90 121 154 153 64 33 158 37 670 32 l464 -5 0 -936 c0 -515 1 -1068 4
-1228 l4 -293 134 0 133 0 0 1230 0 1230 225 0 225 0 0 135 0 136 -897 -3
-898 -3 -70 -23 c-195 -65 -343 -215 -417 -422 l-23 -65 0 -655 0 -655 121 -3
121 -3 95 103 c52 57 140 156 196 220 56 64 107 120 112 123 7 4 10 -99 10
-293 0 -277 -1 -300 -17 -303 -10 -2 -215 -3 -455 -1 l-438 2 0 368 c0 202 -2
497 -3 655 l-2 288 -66 62 c-36 34 -79 75 -97 91 l-32 30 0 -852 0 -852 550 0
550 0 -1 -22 c0 -38 -32 -105 -70 -150 -46 -55 -130 -97 -217 -109 -37 -5
-294 -8 -572 -7 l-505 3 -3 1238 -2 1237 -135 0 -135 0 0 -1365z m2135 585
c-3 -5 -12 -10 -18 -10 -7 0 -6 4 3 10 19 12 23 12 15 0z m-407 -17 c-10 -2
-26 -2 -35 0 -10 3 -2 5 17 5 19 0 27 -2 18 -5z m432 -25 c0 -19 -16 -5 -17
14 -2 18 0 20 7 8 5 -8 10 -18 10 -22z m-197 15 c-7 -2 -21 -2 -30 0 -10 3 -4
5 12 5 17 0 24 -2 18 -5z m194 -385 c-3 -8 -6 -5 -6 6 -1 11 2 17 5 13 3 -3 4
-12 1 -19z m130 -45 c-3 -10 -5 -4 -5 12 0 17 2 24 5 18 2 -7 2 -21 0 -30z
m-150 -265 c-2 -18 -4 -4 -4 32 0 36 2 50 4 33 2 -18 2 -48 0 -65z m0 -610
c-2 -13 -4 -3 -4 22 0 25 2 35 4 23 2 -13 2 -33 0 -45z m150 -400 c-2 -13 -4
-3 -4 22 0 25 2 35 4 23 2 -13 2 -33 0 -45z"/>
</g>
</svg>
